<?xml version="1.0" encoding="UTF-8"?>
<svg version="1.1" xmlns="http://www.w3.org/2000/svg" width="32" height="32">
<path d="M0 0 C3.92061103 2.19278684 6.97809862 4.95619724 9 9 C10.34009135 20.6039728 10.34009135 20.6039728 7.5078125 25.66796875 C4.31531972 29.30423128 1.94759708 31.77508065 -2.9765625 32.34375 C-14.03729021 32.81744284 -14.03729021 32.81744284 -18.8125 28.625 C-23.61624433 23.64713274 -23.50615879 19.37124985 -23.4921875 12.57421875 C-22.75174943 7.19722801 -20.18398445 4.28471177 -16 1 C-11.26503433 -1.36748284 -5.10642777 -0.70318022 0 0 Z " fill="#323C46" transform="translate(23,0)"/>
<path d="M0 0 C2.64 0 5.28 0 8 0 C8 2.64 8 5.28 8 8 C8.66 8 9.32 8 10 8 C10.33 6.35 10.66 4.7 11 3 C12.32 3.33 13.64 3.66 15 4 C14.67 4.66 14.34 5.32 14 6 C13.34 5.67 12.68 5.34 12 5 C12.26676204 6.98491642 12.26676204 6.98491642 13 9 C13.99 9.33 14.98 9.66 16 10 C16 10.66 16 11.32 16 12 C15.01 12.33 14.02 12.66 13 13 C12.67 13.66 12.34 14.32 12 15 C8.5 15.6875 8.5 15.6875 5 16 C4.67 15.67 4.34 15.34 4 15 C3.67 16.32 3.34 17.64 3 19 C2.34 18.67 1.68 18.34 1 18 C1 17.34 1 16.68 1 16 C0.15695312 16.01160156 -0.68609375 16.02320312 -1.5546875 16.03515625 C-2.65039062 16.04417969 -3.74609375 16.05320312 -4.875 16.0625 C-5.96554688 16.07410156 -7.05609375 16.08570312 -8.1796875 16.09765625 C-11 16 -11 16 -13 15 C-12.125 11.125 -12.125 11.125 -11 10 C-8.34536879 9.54540142 -5.67810862 9.29756762 -3 9 C-2.01 6.03 -1.02 3.06 0 0 Z " fill="#1C5555" transform="translate(14,7)"/>
<path d="M0 0 C0.99 0 1.98 0 3 0 C3 0.66 3 1.32 3 2 C2.01 2 1.02 2 0 2 C0 2.66 0 3.32 0 4 C0.99 3.67 1.98 3.34 3 3 C3 7 3 7 1.9609375 8.703125 C-2.03297287 12.59866319 -5.36928575 13.53139788 -10.9375 13.8125 C-17.22963242 13.57746837 -20.44698531 12.06008243 -24.7421875 7.53125 C-25.15726563 7.0259375 -25.57234375 6.520625 -26 6 C-24 4 -24 4 -21.25 3.734375 C-20.1775 3.73953125 -19.105 3.7446875 -18 3.75 C-16.39125 3.74226563 -16.39125 3.74226563 -14.75 3.734375 C-12 4 -12 4 -10 6 C-9.67 5.01 -9.34 4.02 -9 3 C-9.66 2.67 -10.32 2.34 -11 2 C-7.7 2.33 -4.4 2.66 -1 3 C-0.67 2.01 -0.34 1.02 0 0 Z " fill="#2F3945" transform="translate(27,19)"/>
<path d="M0 0 C2.64 0 5.28 0 8 0 C8 2.64 8 5.28 8 8 C8.66 8 9.32 8 10 8 C10.33 6.35 10.66 4.7 11 3 C12.32 3.33 13.64 3.66 15 4 C14.67 4.66 14.34 5.32 14 6 C13.34 5.67 12.68 5.34 12 5 C12.33 6.65 12.66 8.3 13 10 C7.72 10 2.44 10 -3 10 C-2.01 6.7 -1.02 3.4 0 0 Z " fill="#91755B" transform="translate(14,7)"/>
<path d="M0 0 C7.92 0 15.84 0 24 0 C24 0.33 24 0.66 24 1 C21.03888489 1.50081257 18.07718166 1.99635341 15.11328125 2.48046875 C12.77802014 2.87016728 10.44941628 3.30011298 8.125 3.75 C4.57892735 4.03368581 2.26208945 3.35257368 -1 2 C-0.67 1.34 -0.34 0.68 0 0 Z " fill="#47BB99" transform="translate(6,17)"/>
<path d="M0 0 C0.99 0.33 1.98 0.66 3 1 C3 1.99 3 2.98 3 4 C6.96 4.33 10.92 4.66 15 5 C14.67 6.32 14.34 7.64 14 9 C13.34 8.67 12.68 8.34 12 8 C12 7.34 12 6.68 12 6 C11.15695312 6.01160156 10.31390625 6.02320313 9.4453125 6.03515625 C8.34960938 6.04417969 7.25390625 6.05320312 6.125 6.0625 C5.03445312 6.07410156 3.94390625 6.08570313 2.8203125 6.09765625 C-0 6 -0 6 -2 5 C-1.125 1.125 -1.125 1.125 0 0 Z " fill="#526F65" transform="translate(3,17)"/>
<path d="M0 0 C1.32 0.33 2.64 0.66 4 1 C3.67 1.66 3.34 2.32 3 3 C2.34 2.67 1.68 2.34 1 2 C1.33 3.65 1.66 5.3 2 7 C-1.63 7 -5.26 7 -9 7 C-9 6.34 -9 5.68 -9 5 C-3.25 3.875 -3.25 3.875 -1 5 C-0.67 3.35 -0.34 1.7 0 0 Z " fill="#BB8E5A" transform="translate(25,10)"/>
<path d="M0 0 C1.09054688 0.02320312 2.18109375 0.04640625 3.3046875 0.0703125 C4.40039062 0.08835937 5.49609375 0.10640625 6.625 0.125 C7.46804688 0.14820312 8.31109375 0.17140625 9.1796875 0.1953125 C9.1796875 1.1853125 9.1796875 2.1753125 9.1796875 3.1953125 C-0.23033528 3.37982275 -0.23033528 3.37982275 -4.8203125 2.1953125 C-2.8203125 0.1953125 -2.8203125 0.1953125 0 0 Z " fill="#231E31" transform="translate(5.8203125,22.8046875)"/>
<path d="M0 0 C3.3 0.33 6.6 0.66 10 1 C9.67 1.99 9.34 2.98 9 4 C6.69 4 4.38 4 2 4 C2 3.01 2 2.02 2 1 C1.34 0.67 0.68 0.34 0 0 Z " fill="#19162B" transform="translate(16,21)"/>
</svg>
